<?xml version="1.0" standalone="no"?>
<!DOCTYPE svg PUBLIC "-//W3C//DTD SVG 20010904//EN"
 "http://www.w3.org/TR/2001/REC-SVG-20010904/DTD/svg10.dtd">
<svg version="1.0" xmlns="http://www.w3.org/2000/svg"
 width="1080.000000pt" height="1080.000000pt" viewBox="0 0 1080.000000 1080.000000"
 preserveAspectRatio="xMidYMid meet">
<metadata>
Created by potrace 1.14, written by Peter Selinger 2001-2017
</metadata>
<g transform="translate(0.000000,1080.000000) scale(0.100000,-0.100000)"
fill="#000000" stroke="none">
<path d="M0 8880 l0 -1920 1595 0 c1575 0 1595 0 1615 -20 43 -43 34 -110 -20
-137 -20 -10 -355 -12 -1608 -10 l-1582 2 0 -3397 0 -3398 5400 0 5400 0 0
5400 0 5400 -5400 0 -5400 0 0 -1920z m5098 -3574 c698 -908 1276 -1662 1285
-1676 23 -33 21 -72 -4 -104 -27 -35 -89 -37 -122 -3 -12 12 -555 717 -1207
1566 l-1185 1543 -5 -1857 -5 -1857 -28 -24 c-38 -32 -72 -31 -108 5 l-29 29
0 1992 c0 1405 3 1997 11 2011 16 31 66 49 101 37 21 -8 334 -409 1296 -1662z
m1759 1640 l28 -24 3 -1984 c1 -1090 0 -1993 -3 -2005 -15 -62 -95 -84 -140
-38 l-25 24 0 2000 0 1999 31 26 c38 32 70 33 106 2z m677 -2 l26 -27 0 -2002
0 -2002 -26 -27 c-36 -35 -82 -35 -118 0 l-26 27 0 2002 0 2002 26 27 c18 17
37 26 59 26 22 0 41 -9 59 -26z m1956 -1 c436 -95 717 -333 826 -700 21 -72
27 -116 31 -239 13 -355 -85 -607 -325 -835 -161 -155 -344 -249 -582 -302
-90 -19 -130 -21 -787 -24 -622 -4 -695 -2 -717 12 -33 22 -50 64 -37 98 22
58 -4 55 736 60 582 3 691 6 755 20 377 83 648 314 748 637 47 155 53 367 13
523 -33 127 -82 209 -191 317 -103 103 -178 152 -304 201 -202 78 -341 89
-1124 89 l-603 0 -24 25 c-35 34 -34 84 2 119 l27 27 730 -4 c694 -3 736 -5
826 -24z m-7825 -554 c13 -25 15 -246 13 -1743 l-3 -1714 -24 -26 c-33 -35
-83 -35 -116 -1 l-25 24 0 1729 0 1729 23 20 c43 40 107 32 132 -18z"/>
</g>
</svg>
